<svg width="40" height="40" viewBox="0 0 40 40" fill="none" xmlns="http://www.w3.org/2000/svg">
<rect width="40" height="40" rx="8" fill="black"/>
<g clip-path="url(#clip0_322_6)">
<path d="M33.8774 19.562C33.7764 19.2268 33.5964 18.9207 33.3524 18.6695C33.1665 18.4685 32.9275 18.3241 32.6629 18.253C32.7924 18.4578 32.9097 18.694 32.9972 18.946C33.0964 19.2039 33.1564 19.4763 33.1774 19.7633C33.2067 20.0098 33.2067 20.2588 33.1774 20.5053C33.123 20.3225 33.0391 20.1499 32.9289 19.9943C32.7118 19.7018 32.4223 19.4708 32.0889 19.324C31.7192 19.1584 31.3014 19.135 30.9155 19.2584C30.5296 19.3817 30.2028 19.6431 29.9977 19.9925C29.9102 20.136 29.8402 20.2912 29.7877 20.458C27.7192 17.014 23.9969 14.7338 19.7409 14.7338C19.5239 14.7338 19.3087 14.7396 19.0952 14.7513C17.7748 14.7534 16.461 14.9377 15.1909 15.299C15.0824 14.5395 14.0849 12.9995 9.49995 12.9995L10.8999 17.392C10.0194 18.1034 9.27932 18.9729 8.7177 19.9558L5.99995 19.9995C5.99995 19.9995 5.70245 26.9995 7.74995 26.9995H8.69495C9.33925 28.0893 10.1998 29.0357 11.2237 29.7803L11.2499 33.9995H13.1399C15.4324 33.9995 16.4999 33.9995 16.4999 32.687V32.0045C18.2653 32.3298 20.0756 32.3251 21.8392 31.9905L21.7499 32.687C21.7499 33.9995 22.8349 33.9995 25.1449 33.9995H26.9999V29.817C28.6398 28.6782 29.8204 26.9926 30.3302 25.0623C30.4299 25.015 30.5297 25.0203 30.6312 25.0203C30.7327 25.0203 30.8324 25.015 30.9322 25.0028C31.3714 24.9223 31.7722 24.7508 32.1204 24.5075C32.5911 24.1745 32.9513 23.7083 33.1547 23.1688C33.2037 23.0054 33.2404 22.8351 33.2649 22.6578L33.2667 22.6403C33.6534 22.1818 33.9177 21.6078 33.9999 20.976C34.0699 20.4932 34.0268 20.0008 33.8739 19.5375L33.8774 19.562ZM12.1424 19.562C12.4905 19.562 12.8244 19.7003 13.0705 19.9465C13.3167 20.1926 13.4549 20.5264 13.4549 20.8745C13.4549 21.2226 13.3167 21.5565 13.0705 21.8026C12.8244 22.0487 12.4905 22.187 12.1424 22.187C11.7943 22.187 11.4605 22.0487 11.2144 21.8026C10.9682 21.5565 10.8299 21.2226 10.8299 20.8745C10.8299 20.5264 10.9682 20.1926 11.2144 19.9465C11.4605 19.7003 11.7943 19.562 12.1424 19.562ZM16.2899 18.2495C16.0923 18.3136 15.8784 18.3054 15.6863 18.2262C15.4943 18.147 15.3367 18.002 15.2417 17.8173C15.2119 17.7255 15.202 17.6284 15.2125 17.5324C15.223 17.4365 15.2538 17.3438 15.3027 17.2607C15.3517 17.1775 15.4177 17.1056 15.4965 17.0498C15.5753 16.994 15.665 16.9556 15.7597 16.937C16.9106 16.6606 18.092 16.5312 19.2754 16.552L19.4522 16.5503C20.6305 16.5526 21.7674 16.6879 22.8629 16.9563C23.0834 16.9983 23.3214 17.2748 23.3214 17.6073C23.3209 17.678 23.3097 17.7482 23.2882 17.8155C23.2272 17.9292 23.1409 18.0274 23.0359 18.1023C22.9309 18.1773 22.81 18.2271 22.6827 18.2478H22.4149C21.4373 18.0124 20.435 17.8949 19.4294 17.8978H19.2737C18.2149 17.8978 17.1859 18.0255 16.2007 18.267L16.2899 18.2495ZM31.5149 23.377C31.2778 23.5469 31.0078 23.6655 30.7222 23.7253L30.4999 23.727V22.957C30.7887 23.1758 31.1544 23.307 31.5499 23.307H31.5867L31.5149 23.377ZM31.6549 22.187C31.4923 22.2098 31.3266 22.18 31.1821 22.1019C31.0375 22.0238 30.9218 21.9016 30.8517 21.753C30.7705 21.6005 30.7281 21.4303 30.7284 21.2576C30.7287 21.0848 30.7717 20.9147 30.8534 20.7625C30.9361 20.6467 31.0587 20.5656 31.1976 20.5346C31.3364 20.5036 31.4819 20.5249 31.6059 20.5945C31.7645 20.6554 31.9009 20.7629 31.9971 20.9029C32.0934 21.0428 32.1449 21.2087 32.1449 21.3785C32.1785 21.6213 32.1779 21.8692 32.1432 22.1118C31.9806 22.1425 31.8151 22.1554 31.6497 22.1503L31.6549 22.187ZM19.9999 11.2495H18.2499V10.952H18.6874V9.04453H18.2499L19.2124 8.08203H19.5624V10.952H19.9999V11.2495Z" fill="white"/>
<path d="M19.125 7.3125C19.4698 7.31261 19.8113 7.38065 20.1298 7.51272C20.4484 7.64479 20.7378 7.8383 20.9815 8.08222C21.2253 8.32614 21.4186 8.61567 21.5505 8.9343C21.6823 9.25293 21.7501 9.59442 21.75 9.93925C21.7499 10.2841 21.6819 10.6255 21.5498 10.9441C21.4177 11.2626 21.2242 11.552 20.9803 11.7958C20.7364 12.0395 20.4468 12.2328 20.1282 12.3647C19.8096 12.4966 19.4681 12.5644 19.1233 12.5642C18.4268 12.564 17.759 12.2871 17.2667 11.7945C16.7744 11.3019 16.498 10.6339 16.4983 9.9375C16.4985 9.24107 16.7754 8.57327 17.268 8.08098C17.7606 7.5887 18.4286 7.31227 19.125 7.3125ZM19.125 6C18.0807 6 17.0792 6.41484 16.3408 7.15327C15.6023 7.89169 15.1875 8.89321 15.1875 9.9375C15.1875 10.9818 15.6023 11.9833 16.3408 12.7217C17.0792 13.4602 18.0807 13.875 19.125 13.875C20.1693 13.875 21.1708 13.4602 21.9092 12.7217C22.6477 11.9833 23.0625 10.9818 23.0625 9.9375C23.0625 8.89321 22.6477 7.89169 21.9092 7.15327C21.1708 6.41484 20.1693 6 19.125 6Z" fill="white"/>
</g>
<defs>
<clipPath id="clip0_322_6">
<rect width="28" height="28" fill="white" transform="translate(6 6)"/>
</clipPath>
</defs>
</svg>
